<svg width="40" height="12" viewBox="0 0 40 12" fill="none" xmlns="http://www.w3.org/2000/svg">
<path d="M24.516 7.125L23.5657 4.2551H23.5109L22.5624 7.125H24.516Z" fill="#FB3C29"/>
<path fill-rule="evenodd" clip-rule="evenodd" d="M7.17949 12H40V0H7.17949V0.111027L0 6L7.17949 11.889V12ZM19.3554 2.79406H18.0836V7.34068C18.0836 7.63752 18.0196 7.9019 17.8916 8.13381C17.7637 8.36572 17.5808 8.54777 17.3432 8.67996C17.1078 8.80983 16.829 8.87477 16.5068 8.87477C16.1845 8.87477 15.9057 8.80983 15.6703 8.67996C15.4349 8.54777 15.2521 8.36572 15.1219 8.13381C14.9939 7.9019 14.9299 7.63752 14.9299 7.34068V2.79406H13.6581V7.44852C13.6581 7.95872 13.7758 8.40747 14.0112 8.79476C14.2466 9.18205 14.578 9.48469 15.0053 9.70269C15.4327 9.91837 15.9331 10.0262 16.5068 10.0262C17.0781 10.0262 17.5774 9.91837 18.0048 9.70269C18.4321 9.48469 18.7635 9.18205 18.9989 8.79476C19.2365 8.40747 19.3554 7.95872 19.3554 7.44852V2.79406ZM20.2818 9.91837H21.6392L22.2198 8.16164H24.8592L25.4408 9.91837H26.7983L24.3233 2.79406H22.7533L20.2818 9.91837ZM27.723 2.79406V9.91837H28.9948V6.89193H32.2479V9.91837H33.5231V2.79406H32.2479V5.81007H28.9948V2.79406H27.723Z" fill="#FB3C29"/>
</svg>
